<?xml version="1.0" standalone="no"?>
<!DOCTYPE svg PUBLIC "-//W3C//DTD SVG 20010904//EN"
 "http://www.w3.org/TR/2001/REC-SVG-20010904/DTD/svg10.dtd">
<svg version="1.0" xmlns="http://www.w3.org/2000/svg"
 width="1280.000000pt" height="918.000000pt" viewBox="0 0 1280.000000 918.000000"
 preserveAspectRatio="xMidYMid meet">
<metadata>
Created by potrace 1.15, written by Peter Selinger 2001-2017
</metadata>
<g transform="translate(0.000000,918.000000) scale(0.100000,-0.100000)"
fill="#8bc34a" stroke="none">
<path d="M6568 9165 c-269 -37 -490 -143 -644 -309 -115 -123 -174 -244 -193
-389 -12 -97 7 -287 28 -287 4 0 22 37 39 83 120 317 442 563 837 641 319 63
664 43 1120 -64 88 -21 162 -37 164 -35 6 6 -92 64 -221 130 -394 202 -772
279 -1130 230z"/>
<path d="M7165 8539 c-106 -11 -211 -35 -315 -71 -187 -66 -312 -148 -471
-307 -96 -96 -122 -129 -152 -191 -67 -140 -124 -386 -148 -634 -15 -160 -6
-537 16 -696 124 -896 563 -1633 1144 -1924 249 -126 569 -185 842 -158 383
38 752 180 1129 433 218 147 375 288 534 479 90 108 113 154 149 297 54 211
56 470 7 696 -144 661 -714 1349 -1464 1766 -299 166 -661 282 -966 310 -129
12 -188 12 -305 0z m524 -2449 c106 -54 194 -256 208 -475 15 -255 -76 -455
-207 -455 -41 0 -77 20 -121 67 -104 110 -156 297 -146 520 5 132 21 192 69
272 53 86 120 111 197 71z"/>
<path d="M11780 8459 c0 -4 24 -67 54 -140 296 -738 353 -1489 170 -2214 -165
-649 -541 -1287 -1099 -1863 l-126 -130 79 -101 c215 -276 276 -537 183 -777
-79 -204 -285 -402 -566 -542 -311 -156 -424 -167 -573 -58 -105 77 -220 263
-289 463 -15 46 -32 83 -36 83 -5 0 -75 -40 -155 -89 -219 -132 -416 -242
-619 -348 -101 -52 -183 -99 -183 -104 0 -6 18 -43 40 -83 51 -93 86 -196 100
-292 35 -256 -123 -484 -444 -643 -347 -171 -856 -269 -1005 -192 -125 65
-218 248 -237 466 -4 38 -9 75 -13 81 -4 8 -28 5 -81 -11 -41 -13 -127 -39
-190 -58 -196 -60 -426 -118 -640 -161 l-205 -42 0 -189 c0 -170 -3 -197 -22
-255 -44 -126 -132 -210 -267 -253 -63 -19 -92 -22 -251 -22 -116 0 -224 7
-305 18 -69 10 -174 21 -233 26 -131 11 -195 38 -260 111 -74 82 -139 236
-167 398 -8 40 -16 75 -20 77 -3 2 -75 11 -160 19 -182 19 -417 52 -513 72
-112 23 -110 24 -135 -56 -59 -182 -180 -261 -377 -247 -145 11 -320 69 -642
213 -79 35 -188 79 -243 98 -125 43 -183 76 -221 129 -62 84 -77 151 -90 386
-5 107 -12 198 -15 202 -2 4 -95 68 -207 143 -333 223 -555 404 -833 681 -379
378 -673 765 -899 1187 -37 68 -71 128 -77 133 -7 7 -8 -39 -4 -149 20 -472
138 -1005 328 -1489 72 -182 255 -543 363 -715 516 -822 1299 -1435 2293
-1797 606 -221 1197 -339 2007 -402 308 -23 1031 -23 1395 0 1164 77 2069 251
2905 559 673 249 1277 592 1785 1017 152 127 440 415 569 571 452 541 755
1111 946 1777 288 1003 270 2116 -51 3113 -143 447 -372 903 -612 1222 -72 96
-151 188 -152 177z"/>
<path d="M4305 7935 c-215 -40 -402 -114 -585 -233 -256 -165 -429 -376 -539
-654 -57 -146 -56 -146 111 18 333 325 658 519 1008 601 147 34 367 42 511 19
122 -20 278 -70 379 -121 39 -20 76 -35 81 -33 5 2 -4 30 -20 63 -83 175 -256
295 -490 339 -102 19 -354 20 -456 1z"/>
<path d="M4573 6999 c-150 -13 -394 -84 -530 -152 -114 -58 -373 -297 -517
-477 -200 -249 -379 -589 -446 -845 -51 -199 -65 -436 -35 -611 62 -353 275
-653 630 -887 356 -234 858 -372 1229 -338 120 12 316 57 395 92 102 45 257
238 364 454 300 605 304 1474 7 2080 -235 481 -628 726 -1097 684z m483 -1745
c72 -34 144 -145 185 -286 33 -113 38 -318 11 -426 -55 -218 -181 -289 -301
-170 -103 103 -162 282 -162 493 0 284 120 459 267 389z"/>
<path d="M6730 4250 c-52 -15 -189 -56 -305 -89 -115 -34 -215 -67 -222 -74
-10 -10 -18 -146 -33 -537 -11 -289 -24 -601 -28 -693 -4 -93 -4 -171 1 -174
4 -2 148 97 320 220 171 123 318 227 324 231 7 4 223 -5 479 -19 256 -14 468
-24 471 -21 4 4 -834 1112 -880 1164 -11 12 -23 22 -26 21 -3 0 -49 -13 -101
-29z"/>
</g>
</svg>
