<?xml version="1.0" encoding="UTF-8" standalone="no"?>
<svg
   height="100%"
   stroke-miterlimit="10"
   style="fill-rule:nonzero;clip-rule:evenodd;stroke-linecap:round;stroke-linejoin:round;"
   version="1.1"
   viewBox="0 0 600 600"
   width="100%"
   xml:space="preserve"
   id="svg4"
   sodipodi:docname="stPatricks.svg"
   inkscape:version="1.3.2 (091e20ef0f, 2023-11-25, custom)"
   xmlns:inkscape="http://www.inkscape.org/namespaces/inkscape"
   xmlns:sodipodi="http://sodipodi.sourceforge.net/DTD/sodipodi-0.dtd"
   xmlns="http://www.w3.org/2000/svg"
   xmlns:svg="http://www.w3.org/2000/svg"><sodipodi:namedview
   id="namedview4"
   pagecolor="#ffffff"
   bordercolor="#000000"
   borderopacity="0.25"
   inkscape:showpageshadow="2"
   inkscape:pageopacity="0.0"
   inkscape:pagecheckerboard="0"
   inkscape:deskcolor="#d1d1d1"
   inkscape:zoom="1.4142136"
   inkscape:cx="363.45288"
   inkscape:cy="266.57926"
   inkscape:window-width="1886"
   inkscape:window-height="1046"
   inkscape:window-x="0"
   inkscape:window-y="0"
   inkscape:window-maximized="1"
   inkscape:current-layer="svg4" />
    <defs
   id="defs1" />
    <g
   id="Layer-1">
        
        <path
   d="M 300,0 C 134.315,0 0,134.315 0,300 0,465.685 134.315,600 300,600 465.685,600 600,465.685 600,300 600,134.315 465.685,0 300,0 Z m 0,100 c 110.457,0 200,89.543 200,200 0,110.457 -89.543,200 -200,200 -110.457,0 -200,-89.543 -200,-200 0,-110.457 89.543,-200 200,-200 z"
   fill="#2ece2e"
   fill-rule="nonzero"
   opacity="1"
   stroke="none"
   id="path3"
   style="display:inline" />
        <path
   d="m 100,300 c 0,-110.457 89.543,-200 200,-200 110.457,0 200,89.543 200,200 0,110.457 -89.543,200 -200,200 -110.457,0 -200,-89.543 -200,-200 z"
   fill="none"
   opacity="1"
   stroke="#000102"
   stroke-linecap="butt"
   stroke-linejoin="round"
   stroke-width="2"
   id="path4"
   style="display:none" />
    </g>
<path
   id="path6-7-3-9"
   style="clip-rule:evenodd;fill:#2ece2e;fill-rule:nonzero;stroke-width:6.68243;stroke-linecap:round;stroke-linejoin:round;stroke:#0b281b;stroke-opacity:1;fill-opacity:1"
   inkscape:transform-center-x="2.9025453"
   inkscape:transform-center-y="-30.263721"
   d="m 333.14027,138.12168 c -17.55353,-0.2545 -29.15398,12.90307 -32.8875,17.84058 0.003,-0.006 0.0851,-0.17036 0.0851,-0.17036 0,0 -27.094,-24.56508 -55.59946,0.45007 -12.47113,10.94414 -13.65492,25.60304 -10.53583,39.36002 4.01028,17.68755 15.13254,33.88405 18.52317,38.77528 0.46504,0.67083 1.25655,0.52887 2.28835,-0.22678 l 2.57267,3.47051 -1.42504,0.10821 c -0.0575,-0.37172 -0.26055,-0.63919 -0.63655,-0.78274 -5.56009,-2.1227 -23.94665,-9.05028 -42.08002,-8.71482 -14.10373,0.26091 -28.05383,4.91574 -35.69843,19.64203 -17.47337,33.66006 12.85756,54.09383 12.85756,54.09383 0,0 0.14016,-0.11904 0.14504,-0.12316 -5.20205,6.40779 -21.24971,29.8912 0.56172,53.78075 16.90761,18.51849 38.84235,13.86145 54.27225,6.79942 -22.11844,12.69041 -71.83146,41.24057 -74.12146,43.02505 -5.26135,4.09992 -10.7417,15.92031 1.7715,27.75139 33.03094,31.23029 94.98349,-76.05304 96.31775,-78.37357 l 0.76547,-0.16461 c -4.31013,10.85161 -18.35475,51.41945 14.29066,69.19026 28.41199,15.46632 47.37653,-5.7309 52.35455,-12.31426 -0.003,0.006 -0.084,0.17037 -0.084,0.17037 0,0 27.09285,24.56394 55.5983,-0.45122 12.47114,-10.94414 13.65607,-25.60189 10.53699,-39.35887 -4.01027,-17.68755 -15.13369,-33.88405 -18.52433,-38.77527 -0.38489,-0.55523 -1.00259,-0.53036 -1.78302,-0.0921 l -1.76806,-2.75568 0.27166,-0.23828 c 0.1076,0.19246 0.27955,0.33914 0.52489,0.43281 5.56009,2.12271 23.94664,9.05028 42.08001,8.71482 14.10374,-0.26091 28.05384,-4.91689 35.69844,-19.64317 17.47337,-33.66007 -12.85756,-54.09269 -12.85756,-54.09269 0,0 -0.14016,0.11789 -0.14503,0.12202 5.20204,-6.4078 21.24969,-29.89121 -0.56173,-53.78076 -25.5713,-28.00762 -62.73879,-3.0392 -71.31399,3.15857 -0.27093,0.19581 -0.40734,0.45769 -0.44662,0.76777 -2.69316,1.46031 -7.79742,4.66648 -7.79742,4.66648 0,0 -2.22894,5.25083 -1.59424,3.13208 0.51578,-1.72175 3.28354,-12.60569 4.52144,-17.45842 5.06527,-15.8991 10.92882,-47.36368 -16.71022,-62.40924 -7.103,-3.86658 -13.61589,-5.4415 -19.46706,-5.52633 z" /></svg>
