<?xml version="1.0" encoding="UTF-8" standalone="no"?>
<!DOCTYPE svg PUBLIC "-//W3C//DTD SVG 1.1//EN" "http://www.w3.org/Graphics/SVG/1.1/DTD/svg11.dtd">
<svg height="100%" stroke-miterlimit="10"
    style="fill-rule:nonzero;clip-rule:evenodd;stroke-linecap:round;stroke-linejoin:round;" version="1.1"
    viewBox="0 0 600 600" width="100%" xml:space="preserve" xmlns="http://www.w3.org/2000/svg"
    xmlns:xlink="http://www.w3.org/1999/xlink">
    <defs />
    <g id="Layer-1">
        <g opacity="1">
            <path
                d="M200 300C200 244.772 244.772 200 300 200C355.228 200 400 244.772 400 300C400 355.228 355.228 400 300 400C244.772 400 200 355.228 200 300Z"
                fill="#007f4d" fill-rule="nonzero" opacity="1" stroke="none" />
            <path
                d="M441.421 158.579L300 300L441.421 441.421C519.526 363.316 519.526 236.684 441.421 158.579ZM300 300L158.579 158.579C80.4738 236.684 80.4738 363.316 158.579 441.421L300 300Z"
                fill="#00a89e" fill-rule="nonzero" opacity="1" stroke="none" />
        </g>
        <path
            d="M300 0C134.315 0 0 134.315 0 300C0 465.685 134.315 600 300 600C465.685 600 600 465.685 600 300C600 134.315 465.685 0 300 0ZM300 100C410.457 100 500 189.543 500 300C500 410.457 410.457 500 300 500C189.543 500 100 410.457 100 300C100 189.543 189.543 100 300 100Z"
            fill="#2ece2e" fill-rule="nonzero" opacity="1" stroke="none" />
        <path
            d="M100 300C100 189.543 189.543 100 300 100C410.457 100 500 189.543 500 300C500 410.457 410.457 500 300 500C189.543 500 100 410.457 100 300Z"
            fill="none" opacity="1" stroke="#000102" stroke-linecap="butt" stroke-linejoin="round" stroke-width="2" />
    </g>
</svg>